<?xml version="1.0" standalone="no"?>
<!DOCTYPE svg PUBLIC "-//W3C//DTD SVG 20010904//EN"
 "http://www.w3.org/TR/2001/REC-SVG-20010904/DTD/svg10.dtd">
<svg version="1.0" xmlns="http://www.w3.org/2000/svg"
 width="1194.000000pt" height="246.000000pt" viewBox="0 0 1194.000000 246.000000"
 preserveAspectRatio="xMidYMid meet">
<metadata>
Created by potrace 1.16, written by Peter Selinger 2001-2019
</metadata>
<g transform="translate(0.000000,246.000000) scale(0.100000,-0.100000)"
fill="#000000" stroke="none">
<path d="M300 1530 c0 -159 1 -170 19 -170 15 0 19 11 25 64 13 132 61 226
115 226 21 0 21 -1 21 -431 l0 -430 -35 -15 c-23 -9 -35 -21 -35 -34 0 -19 7
-20 156 -20 153 0 155 0 152 21 -2 14 -15 25 -38 33 l-35 11 -3 433 -2 432 21
0 c54 0 102 -94 115 -226 6 -53 10 -64 25 -64 18 0 19 11 19 170 l0 170 -260
0 -260 0 0 -170z"/>
<path d="M840 1675 c0 -18 5 -25 19 -25 11 0 27 -7 35 -16 14 -13 16 -66 16
-422 0 -224 -4 -412 -8 -419 -4 -6 -20 -16 -35 -22 -17 -7 -27 -18 -27 -31 0
-19 6 -20 151 -20 150 0 150 0 147 23 -2 14 -11 23 -25 25 -47 7 -53 32 -53
234 l0 188 100 0 100 0 0 -201 0 -200 -35 -15 c-23 -9 -35 -21 -35 -34 0 -19
7 -20 151 -20 149 0 150 0 147 22 -2 14 -12 24 -28 28 -48 11 -50 27 -50 440
0 413 2 429 50 440 16 4 26 14 28 28 3 22 2 22 -147 22 -151 0 -151 0 -151
-23 0 -17 8 -25 33 -32 l32 -10 3 -192 2 -193 -100 0 -100 0 0 183 c0 165 2
186 18 200 10 10 28 17 40 17 17 0 22 6 22 25 l0 25 -150 0 -150 0 0 -25z"/>
<path d="M1510 1677 c0 -16 9 -26 30 -34 l30 -11 0 -419 c0 -436 -1 -443 -42
-443 -13 0 -18 -8 -18 -25 l0 -25 250 0 250 0 0 165 c0 154 -1 165 -19 165
-15 0 -20 -13 -31 -77 -24 -155 -57 -195 -161 -201 l-69 -4 0 216 0 216 29 0
c50 0 71 -27 83 -108 10 -59 15 -72 30 -72 17 0 18 13 18 205 0 198 -1 205
-20 205 -11 0 -20 -7 -20 -15 0 -7 -5 -37 -11 -66 -13 -60 -46 -99 -84 -99
l-25 0 0 200 0 200 50 0 c109 0 141 -48 175 -252 4 -29 11 -38 25 -38 19 0 20
8 20 170 l0 170 -245 0 -245 0 0 -23z"/>
<path d="M2200 1680 c0 -12 9 -24 23 -29 13 -5 29 -16 36 -24 6 -9 52 -206
102 -439 49 -233 91 -433 94 -445 4 -18 12 -23 39 -23 40 0 29 -34 91 295 50
268 56 297 61 293 3 -3 124 -575 124 -586 0 -2 14 -2 32 0 l32 3 92 438 c51
241 100 449 108 463 9 13 25 24 36 24 15 0 20 7 20 25 l0 25 -105 0 -105 0 0
-25 c0 -19 5 -25 23 -25 31 0 47 -18 47 -55 1 -40 -93 -515 -101 -515 -4 0
-30 122 -59 270 -56 289 -56 300 -4 300 19 0 24 5 24 25 l0 25 -140 0 -140 0
0 -24 c0 -15 7 -26 20 -29 24 -6 34 -32 51 -128 11 -70 10 -84 -21 -249 -18
-96 -36 -179 -40 -183 -3 -4 -31 114 -60 262 -46 228 -52 271 -41 285 7 9 22
16 32 16 14 0 19 7 19 25 l0 25 -145 0 c-139 0 -145 -1 -145 -20z"/>
<path d="M3172 1588 c-75 -365 -154 -729 -168 -765 -11 -30 -23 -44 -45 -52
-19 -7 -29 -17 -29 -30 0 -20 6 -21 106 -21 104 0 105 0 102 23 -2 14 -11 23
-26 25 -28 4 -45 35 -38 70 3 15 10 53 16 85 l11 57 79 0 79 0 6 -37 c3 -21
10 -62 15 -92 5 -29 7 -57 4 -62 -3 -5 -19 -12 -37 -17 -22 -6 -33 -15 -35
-30 l-3 -22 375 0 376 0 0 165 c0 154 -1 165 -19 165 -15 0 -20 -13 -30 -72
-22 -135 -66 -196 -145 -205 l-46 -6 2 434 3 434 35 11 c23 8 36 19 38 33 3
21 1 21 -152 21 l-156 0 0 -25 c0 -18 5 -25 19 -25 11 0 27 -7 35 -16 14 -13
16 -66 16 -428 0 -307 -3 -415 -12 -424 -7 -7 -27 -12 -45 -12 -27 0 -35 5
-44 28 -6 15 -51 216 -100 447 -50 231 -92 428 -95 438 -4 11 -16 17 -37 17
l-32 0 -23 -112z m44 -394 c17 -84 29 -156 26 -159 -3 -3 -34 -5 -70 -5 -56 0
-64 2 -60 18 3 9 18 83 33 164 16 81 31 145 34 142 4 -3 20 -75 37 -160z"/>
<path d="M3980 1675 c0 -18 5 -25 19 -25 11 0 27 -7 35 -16 14 -13 16 -66 16
-424 0 -358 -2 -411 -16 -424 -8 -9 -24 -16 -35 -16 -14 0 -19 -7 -19 -25 l0
-25 235 0 235 0 0 165 c0 157 -1 165 -20 165 -14 0 -21 -9 -25 -37 -27 -172
-76 -243 -167 -243 l-38 0 0 424 c0 462 -1 456 56 456 19 0 24 5 24 25 l0 25
-150 0 -150 0 0 -25z"/>
<path d="M4792 1679 c-107 -53 -144 -217 -78 -346 14 -29 58 -87 98 -130 151
-162 178 -206 178 -293 0 -158 -144 -191 -216 -49 -14 29 -31 82 -38 118 -9
48 -17 67 -29 69 -15 3 -17 -12 -17 -162 0 -141 2 -166 15 -166 8 0 15 6 15
14 0 7 6 19 14 25 10 9 27 4 71 -19 86 -45 156 -36 227 28 96 86 113 250 39
386 -14 28 -68 95 -119 150 -141 150 -173 222 -135 296 24 47 61 59 109 37 45
-22 79 -93 96 -201 10 -62 16 -76 30 -76 17 0 18 14 18 170 0 144 -2 170 -15
170 -8 0 -15 -6 -15 -14 0 -7 -6 -19 -14 -26 -12 -9 -22 -6 -53 14 -49 33
-120 35 -181 5z"/>
<path d="M5100 1530 c0 -163 1 -170 20 -170 11 0 20 2 20 4 0 3 5 40 11 83 17
125 61 203 114 203 13 0 15 -50 15 -429 0 -451 1 -444 -45 -453 -12 -2 -21
-13 -23 -26 -3 -22 -3 -22 152 -22 149 0 156 1 156 20 0 13 -9 22 -27 26 -55
13 -53 -5 -53 455 0 428 0 429 21 429 54 0 100 -90 114 -224 6 -55 10 -66 26
-66 18 0 19 10 19 170 l0 170 -260 0 -260 0 0 -170z"/>
<path d="M5640 1676 c0 -19 5 -26 19 -26 11 0 27 -7 35 -16 14 -13 16 -66 16
-422 0 -224 -4 -412 -8 -419 -4 -6 -20 -16 -35 -22 -17 -7 -27 -18 -27 -31 0
-19 6 -20 145 -20 139 0 145 1 145 20 0 13 -10 24 -27 31 -15 6 -31 16 -35 22
-4 7 -8 99 -8 205 l0 192 40 0 c30 0 42 -5 51 -22 7 -12 15 -93 20 -179 9
-190 25 -240 86 -265 45 -19 99 -13 127 16 16 15 21 36 24 90 4 65 3 70 -16
70 -18 0 -21 -7 -24 -52 -5 -78 -25 -72 -32 9 -25 276 -35 315 -94 343 -37 17
-40 26 -12 35 33 11 80 55 103 99 17 32 22 58 22 122 0 72 -3 85 -30 129 -21
33 -47 57 -85 79 -55 31 -56 31 -227 34 l-173 4 0 -26z m310 -54 c32 -32 50
-102 50 -193 0 -126 -36 -189 -106 -189 l-34 0 0 205 0 205 31 0 c20 0 40 -9
59 -28z"/>
<path d="M6200 1675 c0 -19 5 -25 21 -25 11 0 29 -5 40 -10 18 -10 19 -26 19
-431 l0 -420 -35 -15 c-23 -9 -35 -21 -35 -34 0 -19 7 -20 255 -20 l255 0 0
165 c0 155 -1 165 -19 165 -16 0 -21 -13 -31 -78 -23 -150 -70 -202 -182 -202
l-58 0 0 215 0 215 38 0 c53 0 72 -24 85 -110 9 -56 15 -70 29 -70 17 0 18 15
18 205 0 198 -1 205 -20 205 -11 0 -20 -7 -20 -15 0 -7 -5 -37 -11 -66 -14
-63 -46 -99 -89 -99 l-30 0 0 200 0 200 55 0 c106 0 143 -43 170 -196 8 -47
15 -88 15 -90 0 -2 7 -4 15 -4 13 0 15 26 15 170 l0 170 -250 0 -250 0 0 -25z"/>
<path d="M6740 1676 c0 -18 7 -25 29 -29 22 -5 30 -13 35 -38 8 -40 8 -776 0
-806 -3 -12 -19 -26 -35 -32 -19 -7 -29 -17 -29 -30 0 -21 5 -21 255 -21 l255
0 0 165 0 165 -24 0 c-21 0 -24 -5 -30 -60 -11 -91 -32 -153 -66 -185 -27 -26
-40 -30 -100 -33 l-70 -4 0 216 0 217 37 -3 c49 -4 71 -37 79 -115 6 -58 9
-63 30 -63 l24 0 0 205 0 205 -25 0 c-20 0 -25 -5 -25 -26 0 -84 -44 -154 -96
-154 l-24 0 0 201 0 201 65 -4 c51 -3 70 -9 90 -28 28 -27 59 -115 69 -202 6
-48 11 -58 27 -58 18 0 19 9 19 170 l0 170 -245 0 -245 0 0 -24z"/>
<path d="M7260 1530 c0 -163 1 -170 20 -170 21 0 25 10 34 95 13 112 61 195
112 195 l24 0 0 -412 c0 -442 -2 -457 -50 -468 -16 -4 -26 -14 -28 -28 -3 -22
-3 -22 153 -22 154 0 156 0 153 21 -2 14 -15 25 -38 33 l-35 11 -3 433 -2 432
21 0 c54 0 102 -94 115 -226 6 -53 10 -64 25 -64 18 0 19 11 19 170 l0 170
-260 0 -260 0 0 -170z"/>
<path d="M8140 1675 c0 -19 5 -25 21 -25 11 0 29 -5 40 -10 18 -10 19 -25 19
-401 0 -427 -3 -452 -55 -465 -30 -8 -73 9 -82 31 -3 10 9 29 36 54 33 31 41
45 41 73 0 50 -28 82 -73 82 -118 0 -128 -193 -14 -278 22 -16 43 -21 90 -21
78 0 131 26 172 84 l30 43 5 387 c5 409 7 421 51 421 14 0 19 7 19 25 l0 25
-150 0 -150 0 0 -25z"/>
<path d="M8605 1676 c-67 -41 -123 -152 -145 -288 -15 -95 -12 -297 6 -386 29
-146 99 -256 179 -282 55 -18 131 -6 180 28 51 36 109 148 130 254 8 44 15
131 15 202 0 232 -49 389 -146 463 -31 23 -48 28 -108 31 -61 2 -77 -1 -111
-22z m144 -45 c11 -11 25 -37 31 -58 19 -66 30 -346 20 -528 -9 -169 -19 -224
-48 -257 -15 -18 -58 -24 -78 -10 -49 32 -68 192 -61 502 5 234 17 311 52 350
23 25 59 26 84 1z"/>
<path d="M8970 1680 c0 -13 12 -25 35 -34 l35 -15 0 -368 c0 -239 4 -382 11
-408 15 -55 82 -120 139 -135 58 -16 141 -7 183 19 18 11 44 39 57 63 l25 43
5 386 c6 429 4 419 71 419 70 0 69 7 69 -440 0 -342 -2 -399 -16 -418 -8 -12
-24 -22 -35 -22 -14 0 -19 -7 -19 -25 l0 -25 146 0 c145 0 145 0 142 22 -2 13
-11 24 -23 26 -44 8 -45 15 -45 223 l0 199 44 0 c27 0 48 -6 57 -16 8 -10 15
-69 20 -179 9 -197 25 -246 86 -271 49 -21 101 -12 131 21 18 21 22 38 22 91
0 47 -4 64 -14 64 -8 0 -16 -19 -22 -52 -14 -80 -31 -72 -38 19 -19 250 -35
306 -93 333 -33 15 -43 30 -20 30 26 0 90 65 113 114 46 98 21 238 -52 295
-67 53 -80 55 -377 59 l-279 3 4 -22 c2 -15 12 -25 28 -29 49 -11 50 -28 48
-415 -3 -323 -5 -364 -21 -396 -29 -59 -101 -78 -150 -39 -41 33 -47 90 -47
463 0 373 2 387 56 387 19 0 24 5 24 25 l0 25 -150 0 c-143 0 -150 -1 -150
-20z m868 -46 c35 -24 53 -70 59 -149 13 -167 -21 -245 -106 -245 l-41 0 0
205 0 205 33 0 c18 0 43 -7 55 -16z"/>
<path d="M10110 1675 c0 -15 6 -25 15 -25 8 0 26 -18 40 -41 l26 -40 -3 -377
c-3 -400 -5 -417 -50 -424 -15 -2 -24 -11 -26 -25 -3 -23 -2 -23 107 -23 103
0 111 1 111 19 0 13 -11 23 -35 31 -19 6 -40 20 -45 30 -7 12 -9 134 -8 327
l3 308 43 -110 c24 -60 88 -220 142 -355 l98 -245 35 -3 36 -3 3 444 c3 421 4
446 22 466 11 12 27 21 38 21 13 0 18 7 18 25 l0 25 -116 0 c-113 0 -115 0
-112 -22 2 -15 13 -24 35 -30 61 -16 63 -26 62 -293 l0 -240 -117 293 -116
292 -103 0 -103 0 0 -25z"/>
<path d="M10886 1688 c-3 -7 -44 -200 -91 -428 -48 -228 -93 -430 -101 -448
-7 -18 -24 -36 -39 -42 -15 -6 -25 -17 -25 -30 0 -19 6 -20 106 -20 103 0 105
0 102 22 -2 14 -12 24 -27 28 -41 9 -46 30 -30 121 l14 84 76 3 c88 3 81 10
100 -101 14 -85 8 -103 -39 -109 -19 -2 -28 -10 -30 -26 l-3 -22 375 0 376 0
0 165 c0 154 -1 165 -19 165 -15 0 -19 -10 -24 -60 -9 -78 -45 -168 -78 -193
-15 -10 -47 -22 -73 -24 l-46 -6 0 431 c0 416 1 432 19 442 11 5 29 10 40 10
16 0 21 6 21 25 l0 25 -150 0 -150 0 0 -25 c0 -18 5 -25 20 -25 11 0 27 -11
35 -24 23 -35 18 -831 -5 -846 -28 -18 -74 -7 -87 21 -7 14 -55 221 -106 460
l-93 434 -32 3 c-20 2 -34 -2 -36 -10z m54 -650 c0 -5 -29 -8 -65 -8 -36 0
-65 3 -65 8 0 4 14 76 30 161 17 85 30 157 31 160 1 6 68 -307 69 -321z"/>
<path d="M11735 862 c-29 -5 -45 -31 -45 -72 0 -44 16 -67 52 -75 21 -5 33 -1
52 19 56 55 15 142 -59 128z"/>
</g>
</svg>
